<?xml version="1.0" standalone="no"?>
<!DOCTYPE svg PUBLIC "-//W3C//DTD SVG 20010904//EN"
 "http://www.w3.org/TR/2001/REC-SVG-20010904/DTD/svg10.dtd">
<svg version="1.0" xmlns="http://www.w3.org/2000/svg"
 width="413.000000pt" height="563.000000pt" viewBox="0 0 413.000000 563.000000"
 preserveAspectRatio="xMidYMid meet">
<metadata>
Created by potrace 1.15, written by Peter Selinger 2001-2017
</metadata>
<g transform="translate(0.000000,563.000000) scale(0.100000,-0.100000)"
fill="#000000" stroke="none">
<path d="M0 3987 c0 -1394 2 -1662 15 -1772 72 -624 303 -1112 716 -1510 225
-217 485 -387 809 -530 142 -63 479 -175 525 -175 46 0 383 112 525 175 324
143 584 313 809 530 413 398 644 886 716 1510 13 110 15 378 15 1772 l0 1643
-2065 0 -2065 0 0 -1643z m3970 -6 c0 -901 -4 -1539 -10 -1617 -35 -449 -157
-840 -361 -1154 -303 -468 -804 -820 -1443 -1015 l-90 -27 -75 22 c-127 37
-339 119 -468 180 -757 359 -1207 956 -1327 1760 -33 220 -36 367 -36 1851 l0
1489 1905 0 1905 0 0 -1489z"/>
<path d="M3229 5280 c-144 -23 -263 -84 -355 -183 -109 -116 -154 -240 -154
-422 0 -386 261 -623 664 -602 124 6 199 24 299 69 49 23 66 35 63 47 -2 9
-12 62 -21 117 l-18 101 -76 -38 c-94 -48 -175 -69 -261 -69 -222 0 -360 146
-360 379 0 187 82 316 228 361 120 37 238 21 371 -51 40 -22 75 -38 76 -37 1
2 9 50 19 108 10 58 19 112 22 121 6 20 -80 63 -170 84 -77 19 -253 27 -327
15z"/>
<path d="M382 4858 c4 -392 5 -416 26 -479 44 -134 149 -235 291 -280 95 -30
262 -37 372 -15 198 40 320 146 373 325 14 46 16 116 16 458 l0 403 -139 0
-140 0 -3 -392 c-4 -418 -5 -429 -55 -496 -74 -100 -293 -111 -380 -19 -70 73
-68 60 -71 505 l-3 402 -145 0 -146 0 4 -412z"/>
<path d="M1690 4680 l0 -590 244 0 c274 0 360 11 460 58 113 54 175 142 184
261 9 127 -43 229 -142 282 -25 13 -46 26 -45 29 0 3 19 19 42 35 62 46 92
112 92 205 -1 91 -26 150 -87 205 -92 84 -193 104 -515 105 l-233 0 0 -590z
m497 361 c69 -32 92 -104 53 -168 -30 -50 -72 -66 -182 -71 l-98 -4 0 131 0
131 93 0 c69 0 103 -5 134 -19z m29 -466 c27 -13 57 -38 67 -54 37 -63 11
-163 -51 -195 -36 -19 -138 -36 -214 -36 l-58 0 0 155 0 155 103 0 c90 0 110
-3 153 -25z"/>
<path d="M775 3936 c-33 -8 -105 -31 -160 -51 -60 -22 -127 -39 -167 -42 l-68
-6 0 -138 0 -139 48 1 c54 0 139 23 267 70 89 34 92 34 255 34 l165 -1 130
-48 c129 -49 131 -49 255 -50 l125 -1 140 50 140 50 160 0 160 0 140 -50 140
-50 125 1 c124 1 126 1 255 50 l130 48 165 1 c163 0 166 0 255 -34 128 -47
213 -70 268 -70 l47 -1 0 139 0 138 -64 5 c-39 4 -116 24 -202 54 l-139 49
-160 0 -160 0 -140 -50 c-138 -49 -142 -49 -260 -50 -119 0 -121 0 -260 50
l-140 50 -160 0 -160 0 -140 -50 c-139 -50 -141 -50 -260 -50 -118 1 -123 2
-260 49 -137 48 -143 49 -275 52 -91 3 -155 -1 -195 -10z"/>
<path d="M2056 3510 c-3 -19 -51 -363 -106 -765 -55 -401 -103 -741 -106 -754
-4 -20 -74 90 -365 575 -197 329 -359 591 -359 581 0 -10 63 -291 141 -625 77
-334 144 -624 148 -645 8 -35 -3 -26 -198 161 -402 387 -556 532 -563 532 -5
0 -1 -16 7 -36 152 -365 377 -916 374 -918 -2 -2 -143 100 -312 227 -169 126
-310 227 -313 224 -10 -10 148 -391 224 -541 221 -437 486 -695 947 -921 172
-84 453 -198 490 -197 37 0 318 113 490 197 461 226 726 484 947 921 76 150
234 531 224 541 -3 3 -144 -98 -313 -224 -169 -127 -310 -229 -312 -227 -3 2
222 553 374 918 8 20 12 36 7 36 -7 0 -161 -145 -563 -532 -195 -187 -206
-196 -198 -161 4 21 71 311 148 645 78 334 141 615 141 625 0 10 -162 -252
-359 -581 -291 -485 -361 -595 -365 -575 -3 13 -51 355 -106 759 -55 404 -104
749 -109 765 l-8 30 -7 -35z"/>
<path d="M860 3484 c-95 -15 -153 -30 -233 -60 -51 -19 -127 -40 -169 -46
l-78 -11 0 -138 0 -137 63 5 c36 3 123 26 212 57 l150 51 145 0 145 -1 138
-48 c76 -26 168 -52 205 -56 93 -12 209 5 311 44 47 18 98 36 114 40 16 4 27
13 28 24 0 9 8 72 18 140 l17 122 -24 0 c-13 0 -85 -21 -160 -47 -128 -44
-144 -47 -237 -47 -93 1 -110 4 -238 48 -168 57 -298 76 -407 60z"/>
<path d="M3064 3480 c-33 -5 -123 -30 -200 -56 -129 -44 -146 -47 -239 -48
-93 0 -109 3 -237 47 -75 26 -147 47 -160 47 l-24 0 17 -122 c10 -68 18 -131
18 -140 1 -11 12 -20 29 -24 15 -4 66 -22 113 -40 169 -65 305 -64 494 4 228
82 366 83 601 4 85 -28 176 -52 212 -55 l62 -5 0 137 0 138 -78 11 c-42 6
-118 26 -167 45 -50 19 -115 40 -145 46 -75 16 -222 22 -296 11z"/>
<path d="M775 3005 c-33 -7 -105 -30 -160 -50 -60 -22 -127 -39 -167 -42 l-68
-6 0 -140 0 -140 68 6 c40 4 121 25 197 52 143 49 257 67 368 58 49 -4 67 -2
67 6 0 12 -46 219 -56 254 -5 15 -18 17 -97 16 -51 0 -119 -7 -152 -14z"/>
<path d="M3107 3004 c-11 -35 -57 -242 -57 -255 0 -8 18 -10 68 -6 110 9 224
-9 367 -58 76 -27 157 -48 197 -52 l68 -6 0 140 0 140 -64 5 c-38 3 -118 24
-202 53 -127 44 -149 48 -255 53 -108 4 -117 3 -122 -14z"/>
<path d="M1740 2957 c-98 -35 -130 -41 -217 -45 -57 -2 -103 -6 -103 -9 0 -3
36 -65 80 -138 l80 -132 42 8 c33 6 181 55 195 64 4 3 45 287 41 290 -2 1 -55
-16 -118 -38z"/>
<path d="M2270 2990 c0 -15 40 -284 43 -285 14 -10 162 -58 195 -64 l42 -8 80
132 c44 73 80 135 80 138 0 3 -46 7 -102 9 -88 4 -120 10 -220 46 -65 22 -118
37 -118 32z"/>
</g>
</svg>
